# Blender v3.1.2 OBJ File: 'human.blend'
# www.blender.org
mtllib walk2.mtl
o 立方体
v -1.025112 6.559469 1.005423
v -1.025112 8.559469 1.005423
v -1.023489 6.559469 -0.994576
v -1.023489 8.559469 -0.994576
v 0.974887 6.559469 1.007047
v 0.974887 8.559469 1.007047
v 0.976510 6.559469 -0.992953
v 0.976510 8.559469 -0.992953
vt 0.625000 0.000000
vt 0.375000 0.250000
vt 0.375000 0.000000
vt 0.625000 0.250000
vt 0.375000 0.500000
vt 0.625000 0.500000
vt 0.375000 0.750000
vt 0.625000 0.750000
vt 0.375000 1.000000
vt 0.125000 0.750000
vt 0.125000 0.500000
vt 0.875000 0.500000
vt 0.625000 1.000000
vt 0.875000 0.750000
vn -1.0000 0.0000 -0.0008
vn 0.0008 0.0000 -1.0000
vn 1.0000 0.0000 0.0008
vn -0.0008 0.0000 1.0000
vn 0.0000 -1.0000 -0.0000
vn 0.0000 1.0000 -0.0000
usemtl None
s off
f 2/1/1 3/2/1 1/3/1
f 4/4/2 7/5/2 3/2/2
f 8/6/3 5/7/3 7/5/3
f 6/8/4 1/9/4 5/7/4
f 7/5/5 1/10/5 3/11/5
f 4/12/6 6/8/6 8/6/6
f 2/1/1 4/4/1 3/2/1
f 4/4/2 8/6/2 7/5/2
f 8/6/3 6/8/3 5/7/3
f 6/8/4 2/13/4 1/9/4
f 7/5/5 5/7/5 1/10/5
f 4/12/6 2/14/6 6/8/6
o 立方体.001
v -0.422186 5.842196 0.407925
v -0.422186 6.652048 0.407925
v -0.421533 5.842196 -0.396099
v -0.421533 6.652048 -0.396099
v 0.372931 5.842196 0.408570
v 0.372931 6.652048 0.408570
v 0.373584 5.842196 -0.395454
v 0.373584 6.652048 -0.395454
vt 0.625000 0.000000
vt 0.375000 0.250000
vt 0.375000 0.000000
vt 0.625000 0.250000
vt 0.375000 0.500000
vt 0.625000 0.500000
vt 0.375000 0.750000
vt 0.625000 0.750000
vt 0.375000 1.000000
vt 0.125000 0.750000
vt 0.125000 0.500000
vt 0.875000 0.500000
vt 0.625000 1.000000
vt 0.875000 0.750000
vn -1.0000 0.0000 -0.0008
vn 0.0008 0.0000 -1.0000
vn 1.0000 0.0000 0.0008
vn -0.0008 0.0000 1.0000
vn 0.0000 -1.0000 -0.0000
vn 0.0000 1.0000 0.0000
usemtl None
s off
f 10/15/7 11/16/7 9/17/7
f 12/18/8 15/19/8 11/16/8
f 16/20/9 13/21/9 15/19/9
f 14/22/10 9/23/10 13/21/10
f 15/19/11 9/24/11 11/25/11
f 12/26/12 14/22/12 16/20/12
f 10/15/7 12/18/7 11/16/7
f 12/18/8 16/20/8 15/19/8
f 16/20/9 14/22/9 13/21/9
f 14/22/10 10/27/10 9/23/10
f 15/19/11 13/21/11 9/24/11
f 12/26/12 10/28/12 14/22/12
o 立方体.002
v -1.025699 1.937700 1.727713
v -1.025699 5.885768 1.727713
v -1.022903 1.937700 -1.716865
v -1.022903 5.885768 -1.716865
v 0.974301 1.937700 1.729336
v 0.974301 5.885768 1.729336
v 0.977096 1.937700 -1.715242
v 0.977096 5.885768 -1.715242
vt 0.625000 0.000000
vt 0.375000 0.250000
vt 0.375000 0.000000
vt 0.625000 0.250000
vt 0.375000 0.500000
vt 0.625000 0.500000
vt 0.375000 0.750000
vt 0.625000 0.750000
vt 0.375000 1.000000
vt 0.125000 0.750000
vt 0.125000 0.500000
vt 0.875000 0.500000
vt 0.625000 1.000000
vt 0.875000 0.750000
vn -1.0000 0.0000 -0.0008
vn 0.0008 0.0000 -1.0000
vn 1.0000 0.0000 0.0008
vn -0.0008 0.0000 1.0000
vn 0.0000 -1.0000 0.0000
vn 0.0000 1.0000 0.0000
usemtl None
s off
f 18/29/13 19/30/13 17/31/13
f 20/32/14 23/33/14 19/30/14
f 24/34/15 21/35/15 23/33/15
f 22/36/16 17/37/16 21/35/16
f 23/33/17 17/38/17 19/39/17
f 20/40/18 22/36/18 24/34/18
f 18/29/13 20/32/13 19/30/13
f 20/32/14 24/34/14 23/33/14
f 24/34/15 22/36/15 21/35/15
f 22/36/16 18/41/16 17/37/16
f 23/33/17 21/35/17 17/38/17
f 20/40/18 18/42/18 22/36/18
o 立方体.003
v -2.590759 3.662370 -2.681278
v -2.641877 3.773806 -1.613561
v 0.071515 5.452061 -2.740605
v 0.020396 5.563497 -1.672887
v -2.026342 2.826554 -2.567023
v -2.077461 2.937990 -1.499305
v 0.635931 4.616244 -2.626349
v 0.584812 4.727681 -1.558632
vt 0.625000 0.000000
vt 0.375000 0.250000
vt 0.375000 0.000000
vt 0.625000 0.250000
vt 0.375000 0.500000
vt 0.625000 0.500000
vt 0.375000 0.750000
vt 0.625000 0.750000
vt 0.375000 1.000000
vt 0.125000 0.750000
vt 0.125000 0.500000
vt 0.875000 0.500000
vt 0.625000 1.000000
vt 0.875000 0.750000
vn -0.5561 0.8235 -0.1126
vn 0.8298 0.5578 -0.0185
vn 0.5561 -0.8235 0.1126
vn -0.8298 -0.5578 0.0185
vn 0.0476 -0.1037 -0.9935
vn -0.0476 0.1037 0.9935
usemtl None
s off
f 26/43/19 27/44/19 25/45/19
f 28/46/20 31/47/20 27/44/20
f 32/48/21 29/49/21 31/47/21
f 30/50/22 25/51/22 29/49/22
f 31/47/23 25/52/23 27/53/23
f 28/54/24 30/50/24 32/48/24
f 26/43/19 28/46/19 27/44/19
f 28/46/20 32/48/20 31/47/20
f 32/48/21 30/50/21 29/49/21
f 30/50/22 26/55/22 25/51/22
f 31/47/23 29/49/23 25/52/23
f 28/54/24 26/56/24 30/50/24
o 立方体.004
v 1.978059 2.902990 1.472273
v 1.842143 2.754728 2.528015
v -0.419687 4.934055 1.448819
v -0.555603 4.785792 2.504561
v 2.621445 3.664723 1.662076
v 2.485529 3.516461 2.717818
v 0.223699 5.695788 1.638622
v 0.087783 5.547525 2.694364
vt 0.625000 0.000000
vt 0.375000 0.250000
vt 0.375000 0.000000
vt 0.625000 0.250000
vt 0.375000 0.500000
vt 0.625000 0.500000
vt 0.375000 0.750000
vt 0.625000 0.750000
vt 0.375000 1.000000
vt 0.125000 0.750000
vt 0.125000 0.500000
vt 0.875000 0.500000
vt 0.625000 1.000000
vt 0.875000 0.750000
vn -0.6339 -0.7505 -0.1870
vn -0.7630 0.6463 -0.0075
vn 0.6339 0.7505 0.1870
vn 0.7630 -0.6463 0.0075
vn 0.1265 0.1380 -0.9823
vn -0.1265 -0.1380 0.9823
usemtl None
s off
f 34/57/25 35/58/25 33/59/25
f 36/60/26 39/61/26 35/58/26
f 40/62/27 37/63/27 39/61/27
f 38/64/28 33/65/28 37/63/28
f 39/61/29 33/66/29 35/67/29
f 36/68/30 38/64/30 40/62/30
f 34/57/25 36/60/25 35/58/25
f 36/60/26 40/62/26 39/61/26
f 40/62/27 38/64/27 37/63/27
f 38/64/28 34/69/28 33/65/28
f 39/61/29 37/63/29 33/66/29
f 36/68/30 34/70/30 38/64/30
o 立方体.005
v 0.690763 -1.129404 -1.466691
v 0.683685 -1.114418 -0.392066
v -0.501501 1.782987 -1.515157
v -0.508579 1.797973 -0.440533
v 1.630087 -0.744854 -1.465867
v 1.623009 -0.729868 -0.391242
v 0.437823 2.167538 -1.514333
v 0.430745 2.182524 -0.439708
vt 0.625000 0.000000
vt 0.375000 0.250000
vt 0.375000 0.000000
vt 0.625000 0.250000
vt 0.375000 0.500000
vt 0.625000 0.500000
vt 0.375000 0.750000
vt 0.625000 0.750000
vt 0.375000 1.000000
vt 0.125000 0.750000
vt 0.125000 0.500000
vt 0.875000 0.500000
vt 0.625000 1.000000
vt 0.875000 0.750000
vn -0.9254 -0.3789 -0.0008
vn -0.3788 0.9253 -0.0154
vn 0.9254 0.3789 0.0008
vn 0.3788 -0.9253 0.0154
vn 0.0066 -0.0139 -0.9999
vn -0.0066 0.0139 0.9999
usemtl None
s off
f 42/71/31 43/72/31 41/73/31
f 44/74/32 47/75/32 43/72/32
f 48/76/33 45/77/33 47/75/33
f 46/78/34 41/79/34 45/77/34
f 47/75/35 41/80/35 43/81/35
f 44/82/36 46/78/36 48/76/36
f 42/71/31 44/74/31 43/72/31
f 44/74/32 48/76/32 47/75/32
f 48/76/33 46/78/33 45/77/33
f 46/78/34 42/83/34 41/79/34
f 47/75/35 45/77/35 41/80/35
f 44/82/36 42/84/36 46/78/36
o 立方体.006
v -1.780276 -0.732063 0.644343
v -1.775406 -0.716222 1.718967
v -0.698431 2.223124 0.595877
v -0.693560 2.238965 1.670501
v -0.827141 -1.080977 0.645166
v -0.822270 -1.065136 1.719791
v 0.254705 1.874210 0.596700
v 0.259575 1.890051 1.671325
vt 0.625000 0.000000
vt 0.375000 0.250000
vt 0.375000 0.000000
vt 0.625000 0.250000
vt 0.375000 0.500000
vt 0.625000 0.500000
vt 0.375000 0.750000
vt 0.625000 0.750000
vt 0.375000 1.000000
vt 0.125000 0.750000
vt 0.125000 0.500000
vt 0.875000 0.500000
vt 0.625000 1.000000
vt 0.875000 0.750000
vn -0.9391 0.3438 -0.0008
vn 0.3437 0.9389 -0.0154
vn 0.9391 -0.3438 0.0008
vn -0.3437 -0.9389 0.0154
vn -0.0045 -0.0147 -0.9999
vn 0.0045 0.0147 0.9999
usemtl None
s off
f 50/85/37 51/86/37 49/87/37
f 52/88/38 55/89/38 51/86/38
f 56/90/39 53/91/39 55/89/39
f 54/92/40 49/93/40 53/91/40
f 55/89/41 49/94/41 51/95/41
f 52/96/42 54/92/42 56/90/42
f 50/85/37 52/88/37 51/86/37
f 52/88/38 56/90/38 55/89/38
f 56/90/39 54/92/39 53/91/39
f 54/92/40 50/97/40 49/93/40
f 55/89/41 53/91/41 49/94/41
f 52/96/42 50/98/42 54/92/42
